<?xml version="1.0" encoding="UTF-8"?>
<svg id="Layer_1" data-name="Layer 1" xmlns="http://www.w3.org/2000/svg" viewBox="0 0 1000 1000">
  <defs>
    <style>
      .cls-1 {
        fill: #fff;
      }
    </style>
  </defs>
  <circle cx="500" cy="500" r="475.3"/>
  <path d="M532.34,209.85l-.25,.35c-1.86,.07-3.75,.25-5.6,.46,2-.28,3.96-.53,5.85-.81Z"/>
  <path class="cls-1" d="M889.92,500.16c-2.24-8.48-7.36-15.83-15.38-22.07-8.02-6.23-17.72-11.14-29.11-14.71-11.38-3.57-23.75-5.92-37.13-7.04-13.38-1.12-26.41-1.12-39.13,0-12.71,1.12-24.55,3.26-35.48,6.34-10.93,3.15-19.51,7.39-25.74,12.71-4.9,4.03-7.92,8.27-9.04,12.71-1.12,4.48-.98,9.04,.35,13.73,1.33,4.69,3.78,9.49,7.36,14.36,3.57,4.94,7.36,9.6,11.38,14.08,9.77,10.68,22.49,21.61,38.11,32.75-5.36-1.33-11.14-3.54-17.37-6.69-5.36-2.21-11.38-5.57-18.07-10.02-6.69-4.45-13.17-10.26-19.41-17.41-8.02,5.81-17.16,7.81-27.43,6.02-10.26-1.75-19.86-5.88-28.76-12.36-8.93-6.48-16.08-14.71-21.44-24.76-5.32-10.02-7.46-20.74-6.34-32.12,1.12-11.35,6.45-22.63,16.04-33.77,9.6-11.14,25.32-20.95,47.18-29.46,23.19,19.65,45.5,32.26,66.9,37.83,21.4,5.57,40.6,6.13,57.55,1.65,16.92-4.45,31.31-12.82,43.15-25.08,11.8-12.26,19.83-26.41,24.06-42.49,4.24-16.04,4.13-32.79-.32-50.16-4.48-17.41-14.19-33.45-29.11-48.16-14.96-14.75-35.9-27.11-62.91-37.13-26.97-10.05-60.98-15.52-102-16.39-30.37-.46-60.91,4.1-91.67,13.7-30.79,9.6-58.43,24.87-82.98,45.82-5.64,4.83-11,9.98-16.11,15.45-10.75-13.56-23.15-25.18-37.09-34.82-15.62-10.72-33.14-18.74-52.54-24.1-19.4-5.36-39.02-7.81-58.88-7.36-19.83,.46-39.13,4.13-57.86,11.03-18.74,6.94-35.24,17.3-49.49,31.1-15.62,15.17-29.46,33.35-41.47,54.54-12.05,21.19-22.42,43.92-31.1,68.23-8.72,24.31-15.52,49.39-20.42,75.27-4.9,25.85-7.92,50.82-9.04,74.92-1.12,24.1-.21,46.73,2.7,67.92,2.87,21.19,7.88,39.37,15.03,54.5,4.03,9.39,10.26,16.85,18.74,22.42,8.48,5.6,18.07,9.49,28.76,11.7,10.72,2.24,22.21,2.8,34.47,1.68,12.26-1.12,24.41-3.68,36.46-7.71,17.41-6.23,33.21-18.95,47.5-38.11,14.26-19.19,23.64-47.95,28.09-86.31,5.36,36.11,12.71,63.33,22.1,81.61,9.35,18.28,21.61,30.79,36.78,37.48,16.04,7.57,32.89,11.59,50.51,12.01,17.62,.46,34.01-1.75,49.18-6.69,14.89-4.76,27.5-12.29,37.86-22.49,24.59,14.05,51.56,23.22,80.95,27.53,34.78,5.11,69.77,2.35,105.01-8.37-.88-5.78-1.33-11.8-1.33-18.07,0-5.36,.21-11.45,.67-18.39,.46-6.9,1.79-14.15,4.03-21.75-.91,18.74,1.09,35.24,6.02,49.53,1.79,6.23,4.45,12.15,8.02,17.72,3.57,5.57,8.02,10.37,13.38,14.36,5.36,4.03,11.91,6.94,19.72,8.72,7.81,1.79,16.85,2,27.11,.67s18.63-4.48,25.08-9.39c6.48-4.9,11.49-10.93,15.06-18.04,3.57-7.15,5.92-15.06,7.04-23.75,1.09-8.72,1.44-17.51,.98-26.45-1.33-20.95-6.02-44.38-14.05-70.23,12.47-4.9,23.19-11.38,32.12-19.41,7.57-6.23,14.05-14.4,19.4-24.41,5.36-10.05,6.44-21.51,3.33-34.47Zm-538.61-24.76c-3.78-.42-7.92-.67-12.36-.67s-8.83,.14-13.07,.35c-4.24,.21-7.67,.77-10.37,1.68,0-15.62,.91-29.67,2.7-42.17,1.33-10.68,3.12-20.49,5.36-29.42,2.21-8.93,5.78-13.38,10.68-13.38,4.45,0,8.27,4.34,11.38,13.03,3.12,8.72,5.67,18.32,7.71,28.79,2,10.47,3.33,20.18,3.99,29.07,.67,8.93,1.02,13.84,1.02,14.75-.91-.91-3.26-1.58-7.04-2.03Z"/>
</svg>